<?xml version="1.0" encoding="UTF-8" standalone="no"?>
<!-- Created with Inkscape (http://www.inkscape.org/) -->

<svg
   width="132.76436mm"
   height="127.00656mm"
   viewBox="0 0 132.76436 127.00656"
   version="1.1"
   id="svg1"
   xml:space="preserve"
   xmlns:inkscape="http://www.inkscape.org/namespaces/inkscape"
   xmlns:sodipodi="http://sodipodi.sourceforge.net/DTD/sodipodi-0.dtd"
   xmlns="http://www.w3.org/2000/svg"
   xmlns:svg="http://www.w3.org/2000/svg"><sodipodi:namedview
     id="namedview1"
     pagecolor="#ffffff"
     bordercolor="#000000"
     borderopacity="0.25"
     inkscape:showpageshadow="2"
     inkscape:pageopacity="0.0"
     inkscape:pagecheckerboard="0"
     inkscape:deskcolor="#d1d1d1"
     inkscape:document-units="mm" /><defs
     id="defs1" /><g
     inkscape:label="Layer 1"
     inkscape:groupmode="layer"
     id="layer1"
     transform="translate(102.69974,0.99602601)"><g
       id="g1"
       transform="translate(73.328709,-94.695653)"><path
         style="fill:#e5dc75"
         d="m -115.84853,219.80003 c -0.21509,-0.49477 -13.12814,-28.90308 -28.69568,-63.12958 -15.56754,-34.22649 -28.35329,-62.396677 -28.41277,-62.600406 l -0.10814,-0.370417 1.3476,0.0061 1.3476,0.0061 28.575,62.895603 c 15.71625,34.59258 28.68946,63.16482 28.82937,63.49385 l 0.25436,0.59825 h -1.37314 -1.37313 z m 14.48631,-23.3445 c -0.19587,-0.46112 -0.49849,-1.18772 -0.67247,-1.61464 l -0.31634,-0.77624 19.417765,-44.36168 19.417769,-44.36168 h 1.364183 1.364182 l -0.102883,0.26459 c -0.05659,0.14552 -8.985522,20.55283 -19.84208,45.34958 -10.856559,24.79674 -19.859526,45.36703 -20.006596,45.71174 l -0.26739,0.62675 z"
         id="path3" /><path
         style="fill:#00a2b0"
         d="m -118.81186,219.80003 c -0.21509,-0.49477 -13.12815,-28.90308 -28.69569,-63.12958 -15.56754,-34.22649 -28.35328,-62.396677 -28.41276,-62.600406 l -0.10815,-0.370417 1.45344,0.0061 1.45344,0.0061 28.575,62.895603 c 15.71624,34.59258 28.68946,63.16482 28.82936,63.49385 l 0.25436,0.59825 h -1.47897 -1.47897 z m 15.66864,-27.44065 -0.69179,-1.67558 18.678215,-42.67125 18.678217,-42.67126 h 1.469891 1.46989 l -0.10272,0.26459 c -0.419831,1.08139 -38.560963,88.1418 -38.670023,88.26766 -0.0769,0.0888 -0.45119,-0.5926 -0.83168,-1.51416 z"
         id="path2" /><path
         style="fill:#2f2f2f"
         d="m -113.09545,219.80334 c -0.21586,-0.49659 -13.12956,-28.90639 -28.6971,-63.13289 -15.56754,-34.22649 -28.35328,-62.396677 -28.41276,-62.600406 l -0.10815,-0.370417 h 63.52469 c 34.938572,0 63.52468,0.07174 63.52468,0.159412 0,0.08768 -12.945334,28.638861 -28.767408,63.447081 l -28.767412,63.28766 -5.95202,0.0562 -5.95203,0.0562 z m 32.363356,-68.84788 c 10.856558,-24.79675 19.785494,-45.20406 19.84208,-45.34958 l 0.102883,-0.26459 h -40.213259 -40.21326 l 19.89178,45.45542 c 10.94048,25.00047 19.9849,45.69353 20.09872,45.98457 l 0.20693,0.52917 0.27247,-0.635 c 0.14985,-0.34925 9.155097,-20.92325 20.011656,-45.71999 z"
         id="path1" /></g></g></svg>


